GRFwalking.mot
version=1
nRows=23
nColumns=37
inDegrees=yes
endheader
time	ground_force_calcn_l_vx	ground_force_calcn_l_vy	ground_force_calcn_l_vz	ground_force_calcn_l_px	ground_force_calcn_l_py	ground_force_calcn_l_pz	ground_torque_calcn_l_vx	ground_torque_calcn_l_vy	ground_torque_calcn_l_vz	ground_force_calcn_r_vx	ground_force_calcn_r_vy	ground_force_calcn_r_vz	ground_force_calcn_r_px	ground_force_calcn_r_py	ground_force_calcn_r_pz	ground_torque_calcn_r_vx	ground_torque_calcn_r_vy	ground_torque_calcn_r_vz	ground_force_hand_l_vx	ground_force_hand_l_vy	ground_force_hand_l_vz	ground_force_hand_l_px	ground_force_hand_l_py	ground_force_hand_l_pz	ground_torque_hand_l_vx	ground_torque_hand_l_vy	ground_torque_hand_l_vz	ground_force_hand_r_vx	ground_force_hand_r_vy	ground_force_hand_r_vz	ground_force_hand_r_px	ground_force_hand_r_py	ground_force_hand_r_pz	ground_torque_hand_r_vx	ground_torque_hand_r_vy	ground_torque_hand_r_vz
        0      5.756515      469.5951      11.53881     0.2009794  -1.23599e-17      -0.39088             0   -0.01898048             0     -6.678742      315.7288    -0.8769088     0.2096792 -1.301043e-17    -0.1344175             0    0.04345196             0             0             0             0     0.2850747     0.7609412    -0.4870028             0             0             0             0             0             0     0.2830363     0.7644339   -0.05253939             0             0             0
0.0166527     -7.387154      443.4019        11.089     0.2000332 -1.225148e-17    -0.3877148             0    -0.2371054             0     -22.66062       308.734      1.403427     0.2059498 -1.301043e-17     -0.140303             0    -0.1164765             0             0             0             0     0.2882718     0.7627429    -0.4925794             0             0             0             0             0             0     0.2853847     0.7674045   -0.05641926             0             0             0
0.0333193     -18.88299      417.1713      10.31935     0.1988021 -1.214306e-17    -0.3846838             0    -0.4446691             0     -36.74148      304.7172      3.100042     0.2024919 -1.214306e-17     -0.145631             0    -0.2735198             0             0             0             0     0.2912518     0.7643895    -0.4979047             0             0             0             0             0             0     0.2874197     0.7700267   -0.05999506             0             0             0
0.0499859     -27.35477      391.2842      9.002819     0.1974101 -1.214306e-17    -0.3820234             0    -0.6312113             0     -47.32449      305.8951      3.768756     0.1998427 -1.214306e-17    -0.1499007             0    -0.4235461             0             0             0             0      0.293782     0.7657029    -0.5028101             0             0             0             0             0             0     0.2890291     0.7720641   -0.06324837             0             0             0
0.0666525     -31.94254      366.6688      7.064823     0.1962626 -1.214306e-17    -0.3800147             0    -0.7882178             0     -53.41192      313.1345      3.209491     0.1979175 -1.214306e-17    -0.1530486             0    -0.5617978             0             0             0             0     0.2957325     0.7665538    -0.5072111             0             0             0             0             0             0     0.2901762     0.7733858   -0.06620994             0             0             0
0.0833191     -32.40748      344.8471       4.60245     0.1958252 -1.214306e-17    -0.3788968             0     -0.909485             0     -54.72155      325.7619      1.501705     0.1968061 -1.214306e-17     -0.155045             0    -0.6828061             0             0             0             0     0.2971105     0.7668741    -0.5110997             0             0             0             0             0             0     0.2908869      0.773962   -0.06893857             0             0             0
0.0999857     -29.10572      327.7574      1.856777      0.196128 -1.214306e-17    -0.3786456             0    -0.9911804             0     -51.64936      341.7802     -1.031994     0.1965619 -1.214306e-17     -0.155978             0    -0.7806859             0             0             0             0     0.2980289     0.7666591     -0.514536             0             0             0             0             0             0     0.2912262     0.7738479   -0.07150074             0             0             0
0.1166523     -22.85186      317.4128     -0.848789     0.1971784 -1.214306e-17     -0.379204             0     -1.031764             0     -45.10693      358.3809      -3.91511       0.19711 -1.214306e-17    -0.1560535             0    -0.8498233             0             0             0             0     0.2986451     0.7659621    -0.5176367             0             0             0             0             0             0     0.2912818     0.7731624   -0.07395735             0             0             0
0.1333189     -14.71782      315.5035     -3.183121     0.1988042 -1.214306e-17      -0.38041             0     -1.031902             0     -36.29005      372.5719     -6.628686     0.1982468 -1.214306e-17    -0.1555517             0    -0.8858169             0             0             0             0     0.2991049     0.7648818    -0.5205521             0             0             0             0             0             0     0.2911518     0.7720641   -0.07635774             0             0             0
0.1499855     -5.820141      323.0562     -4.874284     0.2007846 -1.214306e-17    -0.3820593             0    -0.9943953             0     -26.44186      381.7507     -8.714254     0.1996557 -1.214306e-17    -0.1547844             0    -0.8864207             0             0             0             0     0.2995141     0.7635435    -0.5234329             0             0             0             0             0             0     0.2909348      0.770724   -0.07873729             0             0             0
0.1666521      2.859664      340.2361     -5.754588     0.2026852 -1.214306e-17    -0.3838193             0    -0.9240767             0     -16.66007      384.1011     -9.846286     0.2010049 -1.214306e-17    -0.1540306             0    -0.8522177             0             0             0             0     0.2999393     0.7620756    -0.5263971             0             0             0             0             0             0     0.2907215     0.7692969   -0.08111466             0             0             0
0.1833187       10.5943      366.3254     -5.778349     0.2042989 -1.214306e-17    -0.3854764             0     -0.827549             0     -7.774413      378.7677     -9.864315     0.2020896 -1.214306e-17    -0.1534685             0    -0.7868129             0             0             0             0     0.3004249      0.760584     -0.529506             0             0             0             0             0             0     0.2905894     0.7678977   -0.08348903             0             0             0
0.1999853      16.96028      399.8663     -5.014326     0.2055994 -1.301043e-17    -0.3869252             0    -0.7126697             0     -0.298281      365.8226     -8.766345     0.2030077 -1.214306e-17    -0.1530978             0    -0.6964409             0             0             0             0     0.3010061      0.759134    -0.5327597             0             0             0             0             0             0     0.2905977     0.7665872   -0.08584066             0             0             0
0.2166519      21.82363      438.9165     -3.619582     0.2066535 -1.301043e-17     -0.388133             0    -0.5877347             0      5.557304       346.081     -6.673443     0.2037385 -1.214306e-17    -0.1529419             0    -0.5890044             0             0             0             0       0.30171     0.7577493    -0.5361091             0             0             0             0             0             0      0.290781     0.7653765   -0.08813621             0             0             0
0.2333185      25.27797      481.3481     -1.803625     0.2075478 -1.257675e-17    -0.3891098             0    -0.4604134             0      9.827492      320.8394     -3.779708     0.2043809 -1.214306e-17    -0.1529466             0    -0.4726855             0             0             0             0     0.3025469     0.7564282    -0.5394828             0             0             0             0             0             0     0.2911436     0.7642474   -0.09033899             0             0             0
0.2499851      27.55737      525.1185     0.2084692     0.2083475 -1.257675e-17    -0.3898883             0    -0.3365812             0      12.71733      291.6089    -0.3020251     0.2050677 -1.214306e-17    -0.1530293             0    -0.3543833             0             0             0             0     0.3035036     0.7551672    -0.5428158             0             0             0             0             0             0     0.2916607     0.7631788   -0.09241836             0             0             0
0.2666517      28.94595      568.4618      2.207319     0.2090811 -1.301043e-17    -0.3905103             0    -0.2192811             0      14.52417      259.8935      3.559119     0.2059056 -1.301043e-17    -0.1531163             0    -0.2383085             0             0             0             0      0.304545     0.7539788    -0.5460671             0             0             0             0             0             0     0.2922862     0.7621677     -0.094355             0             0             0
0.2833183      29.70219      609.9748      4.021387     0.2097418 -1.301043e-17    -0.3910166             0    -0.1080898             0      15.57082      227.0439      7.641349     0.2069584 -1.301043e-17    -0.1531561             0    -0.1250823             0             0             0             0     0.3056255     0.7528942    -0.5492218             0             0             0             0             0             0     0.2929679     0.7612371   -0.09614226             0             0             0
0.2999849      30.00989      648.6068      5.529697     0.2102948 -1.279359e-17    -0.3914356             0  0.0008588901             0      16.15516      194.1878      11.82327     0.2082513 -1.301043e-17    -0.1531256             0   -0.01162681             0             0             0             0     0.3067027     0.7519573    -0.5522792             0             0             0             0             0             0     0.2936605     0.7604332   -0.09778128             0             0             0
0.3166515      29.96213      683.5826      6.666826      0.210687 -1.279359e-17    -0.3917742             0     0.1140397             0       16.5174      162.2268      16.01131     0.2097858 -1.301043e-17    -0.1530377             0      0.108007             0             0             0             0      0.307749     0.7512171     -0.555242             0             0             0             0             0             0     0.2943312     0.7598185   -0.09927465             0             0             0
0.3333181      29.57863      714.3079      7.422305     0.2108538 -1.301043e-17    -0.3920132             0      0.238902             0      16.82348      131.8761       20.1169     0.2115662 -1.301043e-17    -0.1529524             0     0.2409164             0             0             0             0     0.3087567     0.7507253    -0.5581086             0             0             0             0             0             0     0.2949551     0.7594654    -0.1006178             0             0             0
0.3499847      28.84996       740.302      7.835369     0.2107252 -1.301043e-17    -0.3921097             0     0.3816262             0      17.16077      103.7225      24.03286     0.2136558 -1.301043e-17    -0.1529872             0     0.3929616             0             0             0             0     0.3097369     0.7505329     -0.560872             0             0             0             0             0             0     0.2955077     0.7594473    -0.1017961             0             0             0
0.3666513       27.7947      761.1861      7.983657     0.2102316 -1.301043e-17    -0.3920075             0     0.5446207             0      17.54038      78.27032      27.61969     0.2162841 -1.301043e-17    -0.1533093             0     0.5661127             0             0             0             0     0.3107171     0.7506791    -0.5635199             0             0             0             0             0             0     0.2959592     0.7598219    -0.1027877             0             0             0
